<svg width="597" height="153" viewBox="0 0 597 153" fill="none" xmlns="http://www.w3.org/2000/svg">
<path d="M520.519 0H520.481C478.301 0 444 34.3102 444 76.5C444 93.2344 449.393 108.745 458.564 121.339L449.03 149.758L478.435 140.358C490.531 148.372 504.961 153 520.519 153C562.699 153 597 118.68 597 76.5C597 34.3198 562.699 0 520.519 0Z" fill="#4CAF50"/>
<path d="M565.033 108.028C563.187 113.239 555.862 117.561 550.019 118.824C546.022 119.675 540.801 120.354 523.225 113.067C500.744 103.753 486.266 80.9083 485.138 79.4261C484.057 77.9439 476.053 67.3296 476.053 56.3518C476.053 45.3741 481.628 40.0286 483.876 37.7336C485.721 35.8498 488.772 34.9892 491.698 34.9892C492.644 34.9892 493.495 35.037 494.26 35.0753C496.508 35.1709 497.636 35.3048 499.118 38.8524C500.964 43.299 505.458 54.2767 505.994 55.4051C506.539 56.5335 507.084 58.0635 506.319 59.5457C505.602 61.0757 504.97 61.7546 503.842 63.0551C502.714 64.3556 501.643 65.3501 500.514 66.7462C499.482 67.9607 498.315 69.2612 499.615 71.5084C500.916 73.7077 505.41 81.0422 512.028 86.9327C520.567 94.5349 527.49 96.9637 529.967 97.9965C531.812 98.7615 534.012 98.5798 535.36 97.1454C537.072 95.2999 539.185 92.2399 541.337 89.2277C542.867 87.0666 544.798 86.7988 546.826 87.5638C548.891 88.281 559.821 93.6838 562.068 94.8026C564.315 95.931 565.798 96.4665 566.343 97.4132C566.878 98.3599 566.878 102.806 565.033 108.028Z" fill="#FAFAFA"/>
<rect y="50" width="438" height="98" rx="20" fill="#4CAF50"/>
<path d="M68.04 112.324C65.568 112.324 63.42 111.796 61.596 110.74C59.796 109.684 58.404 108.172 57.42 106.204C56.436 104.236 55.944 101.932 55.944 99.292C55.944 96.652 56.424 94.36 57.384 92.416C58.368 90.448 59.772 88.936 61.596 87.88C63.42 86.824 65.568 86.296 68.04 86.296C70.512 86.296 72.648 86.824 74.448 87.88C76.272 88.936 77.664 90.448 78.624 92.416C79.608 94.36 80.1 96.652 80.1 99.292C80.1 101.932 79.608 104.236 78.624 106.204C77.64 108.172 76.236 109.684 74.412 110.74C72.612 111.796 70.488 112.324 68.04 112.324ZM68.04 108.616C70.368 108.616 72.18 107.812 73.476 106.204C74.796 104.596 75.456 102.292 75.456 99.292C75.456 96.292 74.796 94 73.476 92.416C72.18 90.808 70.368 90.004 68.04 90.004C65.688 90.004 63.852 90.808 62.532 92.416C61.236 94 60.588 96.292 60.588 99.292C60.588 102.292 61.236 104.596 62.532 106.204C63.852 107.812 65.688 108.616 68.04 108.616ZM105.095 109.084C105.383 109.516 105.527 109.936 105.527 110.344C105.527 110.896 105.299 111.352 104.843 111.712C104.411 112.072 103.895 112.252 103.295 112.252C102.911 112.252 102.539 112.168 102.179 112C101.843 111.808 101.555 111.532 101.315 111.172L96.5267 103.9C96.0467 103.132 95.5307 102.592 94.9787 102.28C94.4507 101.968 93.7547 101.812 92.8907 101.812H89.3627V109.876C89.3627 110.596 89.1587 111.172 88.7507 111.604C88.3427 112.012 87.7907 112.216 87.0947 112.216C86.3987 112.216 85.8347 112.012 85.4027 111.604C84.9947 111.172 84.7907 110.596 84.7907 109.876V88.816C84.7907 88.12 84.9827 87.58 85.3667 87.196C85.7747 86.812 86.3267 86.62 87.0227 86.62H96.0227C98.9027 86.62 101.087 87.268 102.575 88.564C104.087 89.836 104.843 91.684 104.843 94.108C104.843 96.076 104.279 97.696 103.151 98.968C102.047 100.216 100.475 101.02 98.4347 101.38C99.1307 101.548 99.7427 101.848 100.271 102.28C100.799 102.712 101.315 103.312 101.819 104.08L105.095 109.084ZM95.3747 98.248C97.1267 98.248 98.4107 97.924 99.2267 97.276C100.043 96.604 100.451 95.584 100.451 94.216C100.451 92.824 100.043 91.816 99.2267 91.192C98.4107 90.544 97.1267 90.22 95.3747 90.22H89.3267V98.248H95.3747ZM128.51 105.988C128.918 105.988 129.266 106.168 129.554 106.528C129.842 106.888 129.986 107.332 129.986 107.86C129.986 108.22 129.926 108.544 129.806 108.832C129.686 109.096 129.47 109.348 129.158 109.588C127.118 111.244 124.694 112.144 121.886 112.288L121.742 113.512C122.126 113.464 122.402 113.44 122.57 113.44C123.314 113.44 123.938 113.656 124.442 114.088C124.97 114.544 125.234 115.156 125.234 115.924C125.234 116.836 124.826 117.58 124.01 118.156C123.218 118.732 122.09 119.02 120.626 119.02C119.618 119.02 118.778 118.9 118.106 118.66C117.89 118.564 117.722 118.432 117.602 118.264C117.482 118.096 117.422 117.904 117.422 117.688C117.422 117.352 117.518 117.076 117.71 116.86C117.926 116.668 118.202 116.62 118.538 116.716C119.354 116.908 120.026 117.004 120.554 117.004C121.754 117.004 122.354 116.644 122.354 115.924C122.354 115.684 122.27 115.492 122.102 115.348C121.934 115.204 121.694 115.132 121.382 115.132C121.142 115.132 120.83 115.168 120.446 115.24C120.062 115.336 119.822 115.384 119.726 115.384C119.51 115.384 119.33 115.312 119.186 115.168C119.066 115.048 119.018 114.88 119.042 114.664L119.33 112.252C117.194 112.012 115.334 111.34 113.75 110.236C112.19 109.108 110.978 107.62 110.114 105.772C109.274 103.9 108.854 101.74 108.854 99.292C108.854 96.652 109.346 94.36 110.33 92.416C111.314 90.448 112.718 88.936 114.542 87.88C116.39 86.824 118.538 86.296 120.986 86.296C122.57 86.296 124.058 86.536 125.45 87.016C126.842 87.472 128.078 88.144 129.158 89.032C129.47 89.272 129.686 89.524 129.806 89.788C129.926 90.052 129.986 90.376 129.986 90.76C129.986 91.288 129.842 91.732 129.554 92.092C129.266 92.452 128.918 92.632 128.51 92.632C128.03 92.632 127.538 92.464 127.034 92.128C126.002 91.36 125.042 90.832 124.154 90.544C123.266 90.232 122.282 90.076 121.202 90.076C118.706 90.076 116.81 90.856 115.514 92.416C114.242 93.976 113.606 96.268 113.606 99.292C113.606 102.34 114.242 104.644 115.514 106.204C116.81 107.764 118.706 108.544 121.202 108.544C122.234 108.544 123.182 108.388 124.046 108.076C124.934 107.764 125.93 107.236 127.034 106.492C127.274 106.348 127.514 106.228 127.754 106.132C127.994 106.036 128.246 105.988 128.51 105.988ZM156.592 109.228C156.736 109.54 156.808 109.852 156.808 110.164C156.808 110.716 156.58 111.184 156.124 111.568C155.692 111.952 155.188 112.144 154.612 112.144C154.228 112.144 153.868 112.048 153.532 111.856C153.196 111.64 152.932 111.316 152.74 110.884L150.58 106.06H137.908L135.748 110.884C135.556 111.316 135.292 111.64 134.956 111.856C134.62 112.048 134.248 112.144 133.84 112.144C133.288 112.144 132.784 111.952 132.328 111.568C131.872 111.184 131.644 110.716 131.644 110.164C131.644 109.852 131.716 109.54 131.86 109.228L141.796 87.88C142.012 87.4 142.336 87.04 142.768 86.8C143.224 86.536 143.704 86.404 144.208 86.404C144.712 86.404 145.18 86.536 145.612 86.8C146.068 87.04 146.404 87.4 146.62 87.88L156.592 109.228ZM148.996 102.46L144.244 91.768L139.492 102.46H148.996ZM182.842 86.44C183.514 86.44 184.054 86.656 184.462 87.088C184.87 87.496 185.074 88.048 185.074 88.744V110.056C185.074 110.728 184.882 111.256 184.498 111.64C184.114 112.024 183.61 112.216 182.986 112.216C182.362 112.216 181.87 112.024 181.51 111.64C181.15 111.256 180.97 110.728 180.97 110.056V95.224L174.85 106.816C174.562 107.344 174.25 107.74 173.914 108.004C173.578 108.244 173.182 108.364 172.726 108.364C172.27 108.364 171.874 108.244 171.538 108.004C171.202 107.764 170.89 107.368 170.602 106.816L164.446 95.404V110.056C164.446 110.704 164.254 111.232 163.87 111.64C163.51 112.024 163.018 112.216 162.394 112.216C161.77 112.216 161.278 112.024 160.918 111.64C160.558 111.256 160.378 110.728 160.378 110.056V88.744C160.378 88.048 160.57 87.496 160.954 87.088C161.362 86.656 161.902 86.44 162.574 86.44C163.51 86.44 164.242 86.956 164.77 87.988L172.762 103.216L180.718 87.988C181.246 86.956 181.954 86.44 182.842 86.44ZM192.808 112C192.112 112 191.56 111.808 191.152 111.424C190.768 111.04 190.576 110.5 190.576 109.804V88.816C190.576 88.12 190.768 87.58 191.152 87.196C191.56 86.812 192.112 86.62 192.808 86.62H205.804C206.5 86.62 207.04 86.776 207.424 87.088C207.808 87.4 208 87.844 208 88.42C208 89.02 207.808 89.488 207.424 89.824C207.04 90.136 206.5 90.292 205.804 90.292H195.112V97.276H205.084C205.78 97.276 206.32 97.432 206.704 97.744C207.088 98.056 207.28 98.512 207.28 99.112C207.28 99.688 207.088 100.132 206.704 100.444C206.32 100.756 205.78 100.912 205.084 100.912H195.112V108.328H205.804C206.5 108.328 207.04 108.496 207.424 108.832C207.808 109.144 208 109.6 208 110.2C208 110.776 207.808 111.22 207.424 111.532C207.04 111.844 206.5 112 205.804 112H192.808ZM230.999 86.44C231.671 86.44 232.199 86.656 232.583 87.088C232.991 87.496 233.195 88.048 233.195 88.744V109.876C233.195 110.572 232.991 111.136 232.583 111.568C232.175 112 231.647 112.216 230.999 112.216C230.231 112.216 229.643 111.94 229.235 111.388L216.095 94.288V109.876C216.095 110.572 215.903 111.136 215.519 111.568C215.135 112 214.607 112.216 213.935 112.216C213.263 112.216 212.735 112 212.351 111.568C211.967 111.136 211.775 110.572 211.775 109.876V88.744C211.775 88.048 211.979 87.496 212.387 87.088C212.795 86.656 213.335 86.44 214.007 86.44C214.751 86.44 215.327 86.716 215.735 87.268L228.839 104.296V88.744C228.839 88.048 229.031 87.496 229.415 87.088C229.823 86.656 230.351 86.44 230.999 86.44ZM246.986 112.18C246.266 112.18 245.69 111.976 245.258 111.568C244.85 111.136 244.646 110.572 244.646 109.876V90.436H238.094C236.654 90.436 235.934 89.8 235.934 88.528C235.934 87.256 236.654 86.62 238.094 86.62H255.842C257.282 86.62 258.002 87.256 258.002 88.528C258.002 89.8 257.282 90.436 255.842 90.436H249.29V109.876C249.29 110.572 249.074 111.136 248.642 111.568C248.234 111.976 247.682 112.18 246.986 112.18ZM270.54 112.324C268.068 112.324 265.92 111.796 264.096 110.74C262.296 109.684 260.904 108.172 259.92 106.204C258.936 104.236 258.444 101.932 258.444 99.292C258.444 96.652 258.924 94.36 259.884 92.416C260.868 90.448 262.272 88.936 264.096 87.88C265.92 86.824 268.068 86.296 270.54 86.296C273.012 86.296 275.148 86.824 276.948 87.88C278.772 88.936 280.164 90.448 281.124 92.416C282.108 94.36 282.6 96.652 282.6 99.292C282.6 101.932 282.108 104.236 281.124 106.204C280.14 108.172 278.736 109.684 276.912 110.74C275.112 111.796 272.988 112.324 270.54 112.324ZM270.54 108.616C272.868 108.616 274.68 107.812 275.976 106.204C277.296 104.596 277.956 102.292 277.956 99.292C277.956 96.292 277.296 94 275.976 92.416C274.68 90.808 272.868 90.004 270.54 90.004C268.188 90.004 266.352 90.808 265.032 92.416C263.736 94 263.088 96.292 263.088 99.292C263.088 102.292 263.736 104.596 265.032 106.204C266.352 107.812 268.188 108.616 270.54 108.616ZM320.068 109.228C320.212 109.54 320.284 109.852 320.284 110.164C320.284 110.716 320.056 111.184 319.6 111.568C319.168 111.952 318.664 112.144 318.088 112.144C317.704 112.144 317.344 112.048 317.008 111.856C316.672 111.64 316.408 111.316 316.216 110.884L314.056 106.06H301.384L299.224 110.884C299.032 111.316 298.768 111.64 298.432 111.856C298.096 112.048 297.724 112.144 297.316 112.144C296.764 112.144 296.26 111.952 295.804 111.568C295.348 111.184 295.12 110.716 295.12 110.164C295.12 109.852 295.192 109.54 295.336 109.228L305.272 87.88C305.488 87.4 305.812 87.04 306.244 86.8C306.7 86.536 307.18 86.404 307.684 86.404C308.188 86.404 308.656 86.536 309.088 86.8C309.544 87.04 309.88 87.4 310.096 87.88L320.068 109.228ZM312.472 102.46L307.72 91.768L302.968 102.46H312.472ZM343.746 115.528C344.01 115.96 344.142 116.38 344.142 116.788C344.142 117.34 343.926 117.784 343.494 118.12C343.062 118.48 342.558 118.66 341.982 118.66C341.55 118.66 341.142 118.552 340.758 118.336C340.374 118.144 340.062 117.844 339.822 117.436L337.698 113.944C337.362 113.392 336.918 112.984 336.366 112.72C335.838 112.456 335.142 112.324 334.278 112.324C331.806 112.324 329.658 111.796 327.834 110.74C326.034 109.684 324.642 108.172 323.658 106.204C322.674 104.236 322.182 101.932 322.182 99.292C322.182 96.652 322.674 94.36 323.658 92.416C324.642 90.448 326.034 88.936 327.834 87.88C329.658 86.824 331.806 86.296 334.278 86.296C336.726 86.296 338.85 86.824 340.65 87.88C342.474 88.936 343.878 90.448 344.862 92.416C345.846 94.36 346.338 96.652 346.338 99.292C346.338 102.148 345.762 104.608 344.61 106.672C343.482 108.712 341.862 110.2 339.75 111.136C340.854 111.52 341.766 112.312 342.486 113.512L343.746 115.528ZM334.278 108.616C336.606 108.616 338.418 107.812 339.714 106.204C341.034 104.596 341.694 102.292 341.694 99.292C341.694 96.292 341.034 94 339.714 92.416C338.418 90.808 336.606 90.004 334.278 90.004C331.926 90.004 330.09 90.808 328.77 92.416C327.474 94 326.826 96.292 326.826 99.292C326.826 102.292 327.474 104.596 328.77 106.204C330.09 107.812 331.926 108.616 334.278 108.616ZM361.505 112.324C358.025 112.324 355.385 111.424 353.585 109.624C351.785 107.824 350.885 105.196 350.885 101.74V88.744C350.885 88.048 351.089 87.496 351.497 87.088C351.905 86.656 352.457 86.44 353.153 86.44C353.849 86.44 354.401 86.656 354.809 87.088C355.217 87.496 355.421 88.048 355.421 88.744V101.992C355.421 104.176 355.937 105.832 356.969 106.96C358.001 108.064 359.513 108.616 361.505 108.616C363.473 108.616 364.973 108.052 366.005 106.924C367.037 105.796 367.553 104.152 367.553 101.992V88.744C367.553 88.048 367.757 87.496 368.165 87.088C368.573 86.656 369.125 86.44 369.821 86.44C370.517 86.44 371.069 86.656 371.477 87.088C371.885 87.496 372.089 88.048 372.089 88.744V101.74C372.089 105.172 371.189 107.8 369.389 109.624C367.589 111.424 364.961 112.324 361.505 112.324ZM379.735 112.216C379.039 112.216 378.475 112 378.043 111.568C377.635 111.136 377.431 110.572 377.431 109.876V88.744C377.431 88.048 377.635 87.496 378.043 87.088C378.475 86.656 379.039 86.44 379.735 86.44C380.455 86.44 381.019 86.656 381.427 87.088C381.859 87.496 382.075 88.048 382.075 88.744V109.876C382.075 110.572 381.859 111.136 381.427 111.568C381.019 112 380.455 112.216 379.735 112.216ZM389.284 104.656C388.924 104.656 388.612 104.536 388.348 104.296C388.108 104.056 387.964 103.708 387.916 103.252L386.584 89.248L386.548 88.888C386.548 88.144 386.8 87.556 387.304 87.124C387.832 86.668 388.492 86.44 389.284 86.44C390.076 86.44 390.724 86.668 391.228 87.124C391.756 87.556 392.02 88.144 392.02 88.888L391.984 89.284L390.652 103.252C390.604 103.708 390.448 104.056 390.184 104.296C389.944 104.536 389.644 104.656 389.284 104.656ZM389.284 112.216C388.516 112.216 387.88 111.964 387.376 111.46C386.872 110.932 386.62 110.284 386.62 109.516C386.62 108.748 386.872 108.112 387.376 107.608C387.88 107.08 388.516 106.816 389.284 106.816C390.052 106.816 390.688 107.08 391.192 107.608C391.696 108.112 391.948 108.748 391.948 109.516C391.948 110.284 391.696 110.932 391.192 111.46C390.688 111.964 390.052 112.216 389.284 112.216Z" fill="white"/>
</svg>
